<?xml version="1.0" encoding="UTF-8"?>
<svg width="28px" height="28px" viewBox="0 0 28 28" version="1.1" xmlns="http://www.w3.org/2000/svg" xmlns:xlink="http://www.w3.org/1999/xlink">
    <!-- Generator: Sketch 52.2 (67145) - http://www.bohemiancoding.com/sketch -->
    <title>icons8-add</title>
    <desc>Created with Sketch.</desc>
    <g id="Page-1" stroke="none" stroke-width="1" fill="none" fill-rule="evenodd">
        <g id="Desktop-HD-Copy-9" transform="translate(-449.000000, -761.000000)" fill="#FFFFFF" fill-rule="nonzero">
            <g id="Group-3" transform="translate(449.000000, 761.000000)">
                <g id="icons8-add">
                    <g id="Shape">
                        <path d="M14,0 C6.27522304,0 0,6.27522304 0,14 C0,21.724777 6.27522304,28 14,28 C21.724777,28 28,21.724777 28,14 C28,6.27522304 21.724777,0 14,0 Z M14,1.2173913 C21.0668494,1.2173913 26.7826087,6.93315061 26.7826087,14 C26.7826087,21.0668494 21.0668494,26.7826087 14,26.7826087 C6.93315061,26.7826087 1.2173913,21.0668494 1.2173913,14 C1.2173913,6.93315061 6.93315061,1.2173913 14,1.2173913 Z M13.9904891,9.1221127 C13.6547836,9.12736031 13.386707,9.40341539 13.3913043,9.73913043 L13.3913043,13.3913043 L9.73913043,13.3913043 C9.51961292,13.3881998 9.31542873,13.5035328 9.204764,13.69314 C9.09409926,13.8827472 9.09409926,14.1172528 9.204764,14.30686 C9.31542873,14.4964672 9.51961292,14.6118002 9.73913043,14.6086957 L13.3913043,14.6086957 L13.3913043,18.2608696 C13.3881998,18.4803871 13.5035328,18.6845713 13.69314,18.795236 C13.8827472,18.9059007 14.1172528,18.9059007 14.30686,18.795236 C14.4964672,18.6845713 14.6118002,18.4803871 14.6086957,18.2608696 L14.6086957,14.6086957 L18.2608696,14.6086957 C18.4803871,14.6118002 18.6845713,14.4964672 18.795236,14.30686 C18.9059007,14.1172528 18.9059007,13.8827472 18.795236,13.69314 C18.6845713,13.5035328 18.4803871,13.3881998 18.2608696,13.3913043 L14.6086957,13.3913043 L14.6086957,9.73913043 C14.6109487,9.5745998 14.5465012,9.41616465 14.4300376,9.29992504 C14.313574,9.18368543 14.1550151,9.11954295 13.9904891,9.1221127 Z"></path>
                    </g>
                </g>
            </g>
        </g>
    </g>
</svg>