<?xml version="1.0" encoding="UTF-8"?>
<svg width="11px" height="11px" viewBox="0 0 11 11" version="1.1" xmlns="http://www.w3.org/2000/svg" xmlns:xlink="http://www.w3.org/1999/xlink">
    <!-- Generator: Sketch 52.2 (67145) - http://www.bohemiancoding.com/sketch -->
    <title>close (1)</title>
    <desc>Created with Sketch.</desc>
    <g id="Page-1" stroke="none" stroke-width="1" fill="none" fill-rule="evenodd">
        <g id="Desktop-HD" transform="translate(-534.000000, -253.000000)" fill="#FFFFFF">
            <g id="close-(1)" transform="translate(539.500000, 258.500000) scale(-1, 1) translate(-539.500000, -258.500000) translate(534.000000, 253.000000)">
                <path d="M10.8698691,0.130147036 C10.6963397,-0.0433823454 10.4150017,-0.0433823454 10.2414723,0.130147036 L0.130147036,10.2414508 C-0.0433823454,10.4149802 -0.0433823454,10.6963182 0.130147036,10.8698476 C0.216900985,10.9566445 0.330639322,11 0.444356174,11 C0.558073026,11 0.671789879,10.956623 0.758565312,10.8698261 L10.8698691,0.758522343 C11.043377,0.585014446 11.043377,0.303676418 10.8698691,0.130147036 Z" id="Path"></path>
                <path d="M10.8698662,10.2414508 L0.758523639,0.130147036 C0.585015446,-0.0433823454 0.303655452,-0.0433823454 0.130147259,0.130147036 C-0.0433824195,0.303654933 -0.0433824195,0.584992961 0.130147259,0.758522343 L10.2414898,10.8698476 C10.3282439,10.956623 10.4419824,11 10.5556995,11 C10.6694165,11 10.783155,10.956623 10.8698877,10.8698691 C11.0433744,10.6963182 11.0433744,10.4149802 10.8698662,10.2414508 Z" id="Path"></path>
            </g>
        </g>
    </g>
</svg>