<?xml version="1.0" encoding="UTF-8"?>
<svg width="15px" height="15px" viewBox="0 0 15 15" version="1.1" xmlns="http://www.w3.org/2000/svg" xmlns:xlink="http://www.w3.org/1999/xlink">
    <!-- Generator: Sketch 52.2 (67145) - http://www.bohemiancoding.com/sketch -->
    <title>001-edit</title>
    <desc>Created with Sketch.</desc>
    <g id="Page-1" stroke="none" stroke-width="1" fill="none" fill-rule="evenodd">
        <g id="Desktop-HD" transform="translate(-532.000000, -221.000000)" fill="#FFFFFF">
            <g id="001-edit" transform="translate(532.000000, 221.000000)">
                <path d="M13.6321499,9.63576782 C13.4289702,9.63576782 13.2642999,9.79715531 13.2642999,9.99628433 L13.2642999,13.1972766 C13.2635814,13.7943821 12.7700013,14.2782629 12.1607497,14.2788262 L1.83925034,14.2788262 C1.22999866,14.2782629 0.736418584,13.7943821 0.735700136,13.1972766 L0.735700136,3.80258255 C0.736418584,3.2056179 1.22999866,2.72173714 1.83925034,2.72103302 L5.10535659,2.72103302 C5.30853629,2.72103302 5.47320666,2.55964553 5.47320666,2.36051651 C5.47320666,2.1615283 5.30853629,2 5.10535659,2 L1.83925034,2 C0.823926694,2.00112661 0.00114953146,2.80750063 0,3.80258255 L0,13.1974175 C0.00114953146,14.1924994 0.823926694,14.9988734 1.83925034,15 L12.1607497,15 C13.1760733,14.9988734 13.9988505,14.1924994 14,13.1974175 L14,9.99628433 C14,9.79715531 13.8353296,9.63576782 13.6321499,9.63576782 Z" id="Path"></path>
                <path d="M13.9815885,0.539160508 C13.262644,-0.179720169 12.0970558,-0.179720169 11.3781113,0.539160508 L4.07968186,7.83694217 C4.02966417,7.88695543 3.99354913,7.94895274 3.97469264,8.01702188 L3.0149281,11.4816786 C2.97545725,11.623729 3.01556726,11.775846 3.11975753,11.8801868 C3.22410754,11.9843678 3.37623806,12.0244742 3.5183011,11.9851667 L6.98326531,11.0253275 C7.05134049,11.0064727 7.11334327,10.9703609 7.163361,10.9203476 L14.4616306,3.62240615 C15.1794565,2.9030461 15.1794565,1.73852007 14.4616306,1.01915999 L13.9815885,0.539160508 Z M4.97105163,8.10282737 L10.9442516,2.12999766 L12.8706522,4.05622726 L6.89729237,10.029057 L4.97105163,8.10282737 Z M4.58625092,8.87491708 L6.12529397,10.4139833 L3.99642557,11.0037563 L4.58625092,8.87491708 Z M13.8831511,3.04397802 L13.4492915,3.47779913 L11.5227312,1.55140975 L11.9567505,1.11758864 C12.3560931,0.718281475 13.0036066,0.718281475 13.4029492,1.11758864 L13.8831511,1.59758812 C14.2818545,1.99737465 14.2818545,2.6443513 13.8831511,3.04397802 Z" id="Shape" fill-rule="nonzero"></path>
            </g>
        </g>
    </g>
</svg>