<?xml version="1.0" encoding="UTF-8"?>
<svg width="113px" height="56px" viewBox="0 0 113 56" version="1.1" xmlns="http://www.w3.org/2000/svg" xmlns:xlink="http://www.w3.org/1999/xlink">
    <!-- Generator: Sketch 52.4 (67378) - http://www.bohemiancoding.com/sketch -->
    <title>Group 4</title>
    <desc>Created with Sketch.</desc>
    <g id="Page-1" stroke="none" stroke-width="1" fill="none" fill-rule="evenodd">
        <g id="Desktop-HD" transform="translate(-140.000000, -95.000000)" fill="#FFFFFF">
            <g id="Group-4" transform="translate(140.000000, 95.000000)">
                <g id="logo-copy">
                    <path d="M0.283389831,55.0295347 C4.98915254,47.1147674 9.70112994,39.2037761 14.419322,31.296561 C15.9928814,28.6532704 16.4813559,28.6532704 18.1481356,31.2625759 C20.0125424,34.2041807 21.839661,37.1684423 23.700339,40.1478085 C21.8359322,41.8886042 20.0125424,43.4066082 18.3979661,45.1964936 C16.0823729,47.7604855 16.399322,49.2520566 19.3450847,50.7322994 C19.8474847,50.9475387 20.3335457,51.1999637 20.799322,51.4875253 C22.2908475,52.5410654 22.339322,54.2365475 20.8216949,55.2636548 C20.3996187,55.5516552 19.9513734,55.7982206 19.4830508,56 L27.0637288,56 C27.2464407,55.7432232 27.399322,55.5242077 27.5372881,55.2976399 C28.8349153,53.1527984 28.5477966,51.2194201 26.5416949,49.9317599 C25.3969492,49.1991908 24.0657627,48.8366824 22.8128814,48.3344572 C21.6420339,47.8662171 21.0938983,47.0241403 21.8508475,45.7553608 C24.2074576,41.8017532 26.5864407,37.859474 29.0549153,33.9927175 C30.0132203,32.4935941 30.7925424,33.5735671 31.3816949,34.5553608 C34.0738983,38.9885367 36.7586441,43.4267476 39.4359322,47.8699933 L44,55.4222522 L44,0 L0,0 L0,55.5393122 C0.10440678,55.3542819 0.190169492,55.1881322 0.283389831,55.0295347 Z" id="Path"></path>
                </g>
                <text id="Base-11/19" font-family="BodoniSvtyTwoITCTT-Book, Bodoni 72" font-size="22" font-weight="normal" line-spacing="22">
                    <tspan x="57" y="28">Base</tspan>
                    <tspan x="57" y="50">11/19</tspan>
                </text>
            </g>
        </g>
    </g>
</svg>